<svg width="649" height="855" viewBox="0 0 649 855" fill="none" xmlns="http://www.w3.org/2000/svg">
<path d="M200.483 577.01L207.483 548.01C207.483 548.01 174.756 536.36 157.483 523.01C146.122 514.228 140.744 507.984 131.483 497.01C125.187 489.548 120.812 485.761 116.483 477.01C111.654 467.246 110.667 460.838 109.483 450.01C108.592 441.857 109.483 437.211 109.483 429.01C109.483 415.732 108.396 408.243 109.483 395.01C110.751 379.588 111.237 370.567 116.483 356.01C119.563 347.465 122.053 342.939 126.483 335.01C131.027 326.878 139.483 315.01 139.483 315.01L134.483 288.01V253.01C134.483 253.01 130.669 235.366 131.483 224.01C131.966 217.286 128.961 210.876 134.483 207.01C138.962 203.875 143.172 205.713 148.483 207.01C155.12 208.63 157.701 212.373 163.483 216.01C175.129 223.334 192.483 236.01 192.483 236.01L220.483 253.01L259.483 244.01L298.483 240.01C317.619 240.01 328.374 238.999 347.483 240.01C363.548 240.859 372.765 240.585 388.483 244.01C400.07 246.535 417.483 253.01 417.483 253.01L430.483 236.01L454.483 216.01C454.483 216.01 468.883 204.239 477.483 196.01C481.474 192.192 481.967 186.273 487.483 186.01C493.282 185.734 495.046 191.332 498.483 196.01C506.012 206.256 503.144 215.366 504.483 228.01C507.578 257.229 498.483 303.01 498.483 303.01C498.483 303.01 515.957 321.051 523.483 335.01C529.991 347.08 533.215 354.486 535.483 368.01C537.551 380.334 535.483 382.513 535.483 395.01V429.01C535.483 437.211 536.596 441.885 535.483 450.01C533.672 463.233 529.856 470.283 523.483 482.01C515.911 495.944 509.83 502.931 498.483 514.01C486.691 525.524 464.483 539.01 464.483 539.01L477.483 577.01L492.483 632.01C492.483 632.01 502.368 650.711 498.483 662.01C493.474 676.577 464.483 682.01 464.483 682.01L343.483 689.01H259.483C259.483 689.01 216.222 699.058 200.483 682.01C187.07 667.48 192.483 632.01 192.483 632.01L200.483 577.01Z" fill="#FF9CB6"/>
<path d="M195 350C170.983 353.703 134 323 134 323L135 315L134.5 291V266.5L133 247.5C133 247.5 124.855 209.459 135 204C143.941 199.188 160 213.5 160 213.5L220.5 253L256 245C256 245 262.515 292.516 248 315C234.548 335.839 219.514 346.22 195 350Z" fill="black"/>
<path d="M521.847 366.584L499 376.545V385C499 385 516.656 378.346 521.847 376.545C526.779 374.834 542 376.545 542 376.545H557H576C576 376.545 585.703 382.359 589.396 376.545C591.535 373.178 591.535 369.951 589.396 366.584C585.703 360.77 570.522 366.584 570.522 366.584H542H521.847Z" fill="black" stroke="black"/>
<path d="M239.473 444.075C240.841 430.062 230.65 422.64 219.473 414.075C208.64 405.775 200.099 403.331 186.473 402.575C170.244 401.676 154.603 400.001 146.473 414.075C135.213 433.566 164.828 449.396 186.473 455.575C206.839 461.39 237.415 465.155 239.473 444.075Z" fill="#FF4B30"/>
<path d="M427.109 453.392C425.906 436.275 434.862 427.21 444.683 416.749C454.201 406.611 461.706 403.625 473.679 402.703C487.94 401.604 501.683 399.559 508.827 416.749C518.721 440.556 492.698 459.891 473.679 467.439C455.784 474.541 428.917 479.139 427.109 453.392Z" fill="#FF4B30"/>
<path d="M521.847 399.584L499 409.545V418C499 418 516.656 411.346 521.847 409.545C526.779 407.834 542 409.545 542 409.545H557H576C576 409.545 585.703 415.359 589.396 409.545C591.535 406.178 591.535 402.951 589.396 399.584C585.703 393.77 570.522 399.584 570.522 399.584H542H521.847Z" fill="black" stroke="black"/>
<path d="M521.847 430.584L499 440.545V449C499 449 516.656 442.346 521.847 440.545C526.779 438.834 542 440.545 542 440.545H557H576C576 440.545 585.703 446.359 589.396 440.545C591.535 437.178 591.535 433.951 589.396 430.584C585.703 424.77 570.522 430.584 570.522 430.584H542H521.847Z" fill="black" stroke="black"/>
<path d="M141.153 366.584L164 376.545V385C164 385 146.344 378.346 141.153 376.545C136.221 374.834 121 376.545 121 376.545H106H87C87 376.545 77.2966 382.359 73.6035 376.545C71.4655 373.178 71.4655 369.951 73.6035 366.584C77.2966 360.77 92.4775 366.584 92.4775 366.584H121H141.153Z" fill="black" stroke="black"/>
<path d="M141.153 399.584L164 409.545V418C164 418 146.344 411.346 141.153 409.545C136.221 407.834 121 409.545 121 409.545H106H87C87 409.545 77.2966 415.359 73.6035 409.545C71.4655 406.178 71.4655 402.951 73.6035 399.584C77.2966 393.77 92.4775 399.584 92.4775 399.584H121H141.153Z" fill="black" stroke="black"/>
<path d="M141.153 430.584L164 440.545V449C164 449 146.344 442.346 141.153 440.545C136.221 438.834 121 440.545 121 440.545H106H87C87 440.545 77.2966 446.359 73.6035 440.545C71.4655 437.178 71.4655 433.951 73.6035 430.584C77.2966 424.77 92.4775 430.584 92.4775 430.584H121H141.153Z" fill="black" stroke="black"/>
<path d="M205.5 260.5L162 230.5L175.5 287L205.5 260.5Z" fill="white"/>
<path d="M486 287L453 258.5L486 222L486 287Z" fill="black" stroke="black"/>
<path d="M301.206 279C293.993 266.031 301.206 240.5 301.206 240.5L322.5 240L344 240.5L365 241.5L375 242.5L385.5 244C385.5 244 385.518 266.804 376.206 279C364.859 293.861 351.234 301.512 332.706 299C318.266 297.042 308.288 291.735 301.206 279Z" fill="black" stroke="black"/>
<path d="M227 360C227 360 246.023 401.172 266.5 396.5C283.344 392.657 291.5 360 291.5 360" stroke="black" stroke-width="4"/>
<path d="M386 360C386 360 405.023 401.172 425.5 396.5C442.344 392.657 450.5 360 450.5 360" stroke="black" stroke-width="4"/>
<path d="M267 452C267 452 283.878 490.112 305 490.5C332.069 490.997 337 429 337 429C337 429 347.963 489.853 376.5 490.5C405.466 491.157 418 429 418 429" stroke="black" stroke-width="4"/>
<path d="M305 563.5C265.896 560.942 207.5 548.5 207.5 548.5L194 608V646.5V676L222 694H281.5H361.5L416.5 684.5C416.5 684.5 457.592 687.129 480 676C480 676 494.338 671.995 498 664.5C501.085 658.184 498 646.5 498 646.5L480 581.5L464 539.5C464 539.5 429.972 556.943 406.5 563.5C368.323 574.164 344.554 566.088 305 563.5Z" fill="black" stroke="black"/>
<path d="M218 602.216C218 602.216 249.34 627.958 267.5 618.716C280.486 612.106 291.916 601.102 287.5 587.216C282.915 572.796 265.943 571.837 251 574.216C226.177 578.166 273.402 611.57 297.5 618.716C312.476 623.157 323.619 625.88 337.5 618.716C351.035 611.73 367.965 600.493 360.5 587.216C354.65 576.811 342.1 574.825 331 579.216C313.097 586.297 341.453 615.91 360.5 618.716C375.45 620.918 392.88 609.712 406 602.216C419.779 594.343 434.795 591.106 429 579.216C423.205 567.325 407.389 568.418 395.5 574.216C377.489 582.999 420.931 611.853 438.5 602.216C447.902 597.059 453.5 579.216 453.5 579.216" stroke="white" stroke-width="3"/>
<path d="M357 410.853L336.456 428L312 410.853H357Z" fill="black" stroke="black"/>
<path d="M193.122 488.467C204.126 478.511 220.118 478.511 231.122 488.467C243.285 499.472 243.285 519.463 231.122 530.467C220.118 540.424 204.126 540.424 193.122 530.467C180.959 519.463 180.959 499.472 193.122 488.467Z" fill="black"/>
<path d="M218 686.898H258C258 686.898 292.798 675.058 289.5 658.398C286.202 641.738 251.388 628.756 248 645.398C248 645.398 251.96 660.687 258 668.398C266.797 679.629 289.5 686.898 289.5 686.898C289.5 686.898 322.403 688.676 337.5 676.898C348.989 667.935 362.829 658.96 357.5 645.398C351.359 629.769 327.045 634.235 314.5 645.398C296.512 661.403 343.429 676.348 367.5 676.898C380.804 677.202 388.12 673.28 400.5 668.398C416.793 661.973 441.911 662.668 439 645.398C436.318 629.486 406.358 615.363 400.5 630.398V645.398C400.5 645.398 413.714 667.058 427.5 668.398C443.135 669.917 451.015 657.92 460.5 645.398L469 630.398" stroke="white" stroke-width="3"/>
</svg>
