<svg width="651" height="636" viewBox="0 0 651 636" fill="none" xmlns="http://www.w3.org/2000/svg">
<path d="M161.514 489.196L170.276 452.914C170.276 452.914 129.31 438.338 107.689 421.636C93.4675 410.649 86.7356 402.837 75.1432 389.107C67.2622 379.771 61.7858 375.034 56.367 364.085C50.3223 351.869 49.0868 343.852 47.6047 330.305C46.4894 320.105 47.6047 314.292 47.6047 304.032C47.6047 287.42 46.2441 278.05 47.6047 261.494C49.192 242.2 49.8003 230.913 56.367 212.701C60.2224 202.01 63.3392 196.348 68.8845 186.428C74.5724 176.254 85.1572 161.405 85.1572 161.405L78.8984 127.625V83.8366C78.8984 83.8366 74.1243 61.762 75.1432 47.5544C75.7478 39.142 71.9863 31.1224 78.8984 26.2856C84.505 22.3633 89.7749 24.6629 96.4229 26.2856C104.731 28.3124 107.962 32.9953 115.199 37.5456C129.777 46.7087 151.5 62.5677 151.5 62.5677L186.549 83.8366L235.367 72.5766L284.185 67.5722C308.139 67.5722 321.601 66.3073 345.521 67.5722C365.63 68.6344 377.168 68.2916 396.843 72.5766C411.347 75.7357 433.143 83.8366 433.143 83.8366L449.416 62.5677L479.458 37.5456C479.458 37.5456 497.483 22.8188 508.248 12.5234C513.244 7.74664 513.861 0.341323 520.766 0.0122811C528.025 -0.333025 530.233 6.67068 534.535 12.5234C543.959 25.3422 540.369 36.7398 542.045 52.5589C545.919 89.115 534.535 146.392 534.535 146.392C534.535 146.392 556.408 168.963 565.829 186.428C573.975 201.528 578.011 210.794 580.849 227.714C583.438 243.133 580.849 245.859 580.849 261.494V304.032C580.849 314.292 582.243 320.14 580.849 330.305C578.583 346.849 573.806 355.669 565.829 370.341C556.35 387.774 548.738 396.515 534.535 410.376C519.774 424.781 491.975 441.654 491.975 441.654L508.248 489.196L527.024 558.007C527.024 558.007 539.398 581.404 534.535 595.54C528.265 613.765 491.975 620.562 491.975 620.562L340.514 629.32H235.367C235.367 629.32 181.215 641.891 161.514 620.562C144.724 602.384 151.5 558.007 151.5 558.007L161.514 489.196Z" fill="#FF9CB6"/>
<path d="M154.653 204.613C124.526 209.238 78.1342 170.886 78.1342 170.886L79.3886 160.892L78.7614 130.912V100.308L76.8798 76.5739C76.8798 76.5739 66.6627 29.0545 79.3886 22.2354C90.6042 16.2244 110.749 34.1024 110.749 34.1024L186.64 83.4442L231.171 73.451C231.171 73.451 239.344 132.806 221.136 160.892C204.262 186.923 185.403 199.891 154.653 204.613Z" fill="black"/>
<path d="M563.559 225.199L535 237.532V248C535 248 557.07 239.762 563.559 237.532C569.724 235.414 588.75 237.532 588.75 237.532H607.5H631.25C631.25 237.532 643.378 244.73 647.995 237.532C650.668 233.363 650.668 229.368 647.995 225.199C643.378 218.001 624.402 225.199 624.402 225.199H588.75H563.559Z" fill="black" stroke="black"/>
<path d="M210.845 322.563C212.562 304.724 199.769 295.276 185.739 284.372C172.141 273.806 161.42 270.695 144.315 269.732C123.943 268.588 104.31 266.455 94.1043 284.372C79.9699 309.185 117.145 329.337 144.315 337.203C169.88 344.606 208.261 349.399 210.845 322.563Z" fill="#FF4B30"/>
<path d="M445.136 333.421C443.632 311.964 454.827 300.601 467.104 287.488C479.001 274.78 488.382 271.037 503.349 269.881C521.175 268.504 538.354 265.94 547.284 287.488C559.651 317.331 527.122 341.567 503.349 351.029C480.98 359.932 447.396 365.695 445.136 333.421Z" fill="#FF4B30"/>
<path d="M563.559 267.199L535 279.532V290C535 290 557.07 281.762 563.559 279.532C569.724 277.414 588.75 279.532 588.75 279.532H607.5H631.25C631.25 279.532 643.378 286.73 647.995 279.532C650.668 275.363 650.668 271.368 647.995 267.199C643.378 260.001 624.402 267.199 624.402 267.199H588.75H563.559Z" fill="black" stroke="black"/>
<path d="M563.559 305.199L535 317.532V328C535 328 557.07 319.762 563.559 317.532C569.724 315.414 588.75 317.532 588.75 317.532H607.5H631.25C631.25 317.532 643.378 324.73 647.995 317.532C650.668 313.363 650.668 309.368 647.995 305.199C643.378 298.001 624.402 305.199 624.402 305.199H588.75H563.559Z" fill="black" stroke="black"/>
<path d="M87.4412 225.199L116 237.532V248C116 248 93.93 239.762 87.4412 237.532C81.2762 235.414 62.25 237.532 62.25 237.532H43.5H19.75C19.75 237.532 7.62075 244.73 3.00438 237.532C0.331875 233.363 0.331875 229.368 3.00438 225.199C7.62075 218.001 26.5969 225.199 26.5969 225.199H62.25H87.4412Z" fill="black" stroke="black"/>
<path d="M87.4412 267.199L116 279.532V290C116 290 93.93 281.762 87.4412 279.532C81.2762 277.414 62.25 279.532 62.25 279.532H43.5H19.75C19.75 279.532 7.62075 286.73 3.00438 279.532C0.331875 275.363 0.331875 271.368 3.00438 267.199C7.62075 260.001 26.5969 267.199 26.5969 267.199H62.25H87.4412Z" fill="black" stroke="black"/>
<path d="M87.4412 305.199L116 317.532V328C116 328 93.93 319.762 87.4412 317.532C81.2762 315.414 62.25 317.532 62.25 317.532H43.5H19.75C19.75 317.532 7.62075 324.73 3.00438 317.532C0.331875 313.363 0.331875 309.368 3.00438 305.199C7.62075 298.001 26.5969 305.199 26.5969 305.199H62.25H87.4412Z" fill="black" stroke="black"/>
<path d="M168 92.6991L113 55L130.069 126L168 92.6991Z" fill="white"/>
<path d="M518 126L478 90.4846L518 45V126Z" fill="black" stroke="black"/>
<path d="M287.03 116.183C277.962 99.828 287.03 67.6306 287.03 67.6306L313.8 67L340.828 67.6306L367.229 68.8917L379.8 70.1528L393 72.0444C393 72.0444 393.023 100.803 381.316 116.183C367.051 134.925 349.923 144.573 326.63 141.406C308.477 138.936 295.933 132.244 287.03 116.183Z" fill="black" stroke="black"/>
<path d="M195 217C195 217 218.889 269.485 244.605 263.529C265.758 258.63 276 217 276 217" stroke="black" stroke-width="4"/>
<path d="M394 217C394 217 417.594 269.485 442.992 263.529C463.884 258.63 474 217 474 217" stroke="black" stroke-width="4"/>
<path d="M245 331.794C245 331.794 266.125 379.508 292.563 379.994C326.444 380.616 332.616 303 332.616 303C332.616 303 346.338 379.184 382.056 379.994C418.312 380.816 434 303 434 303" stroke="black" stroke-width="4"/>
<path d="M292.854 471.136C243.937 467.924 170.888 452.301 170.888 452.301L154 527.013V575.356V612.398L189.026 635H263.457H363.532L432.333 623.071C432.333 623.071 483.737 626.372 511.768 612.398C511.768 612.398 529.704 607.369 534.285 597.958C538.144 590.027 534.285 575.356 534.285 575.356L511.768 493.738L491.753 441C491.753 441 449.186 462.903 419.824 471.136C372.067 484.526 342.334 474.386 292.854 471.136Z" fill="black" stroke="black"/>
<path d="M183 520.023C183 520.023 222.258 552.003 245.006 540.521C261.273 532.309 275.591 518.639 270.059 501.388C264.316 483.473 243.056 482.282 224.338 485.237C193.243 490.145 252.4 531.643 282.586 540.521C301.346 546.038 315.304 549.421 332.692 540.521C349.647 531.842 370.854 517.882 361.503 501.388C354.175 488.461 338.454 485.994 324.55 491.449C302.124 500.246 337.644 537.035 361.503 540.521C380.23 543.257 402.064 529.335 418.499 520.023C435.759 510.242 454.569 506.22 447.31 491.449C440.051 476.676 420.239 478.034 405.346 485.237C382.785 496.149 437.202 531.995 459.21 520.023C470.988 513.616 478 491.449 478 491.449" stroke="white" stroke-width="3"/>
<path d="M358 281L331.978 302L301 281H358Z" fill="black" stroke="black"/>
<path d="M153.353 377.312C167.048 364.896 186.952 364.896 200.647 377.312C215.784 391.035 215.784 415.965 200.647 429.687C186.952 442.104 167.048 442.104 153.353 429.687C138.216 415.965 138.216 391.035 153.353 377.312Z" fill="black"/>
<path d="M183 625.88H233.04C233.04 625.88 276.572 611.032 272.446 590.138C268.32 569.245 224.768 552.964 220.53 573.835C220.53 573.835 225.484 593.009 233.04 602.679C244.045 616.764 272.446 625.88 272.446 625.88C272.446 625.88 313.608 628.11 332.494 613.339C346.867 602.099 364.18 590.843 357.514 573.835C349.832 554.235 319.415 559.835 303.721 573.835C281.218 593.907 339.911 612.649 370.024 613.339C386.667 613.72 395.819 608.802 411.307 602.679C431.689 594.622 463.112 595.493 459.47 573.835C456.115 553.88 418.635 536.168 411.307 555.023V573.835C411.307 573.835 427.837 600.999 445.084 602.679C464.643 604.584 474.501 589.539 486.367 573.835L497 555.023" stroke="white" stroke-width="3"/>
</svg>
